<svg xmlns="http://www.w3.org/2000/svg" width="18" height="18" viewBox="0 0 18 18" fill="none">
  <path d="M14.8932 0H6.7068C5.88312 0.000952785 5.09344 0.328581 4.51101 0.911013C3.92858 1.49344 3.60095 2.28312 3.6 3.1068V3.6H3.1068C2.28312 3.60095 1.49344 3.92858 0.911013 4.51101C0.328581 5.09344 0.000952785 5.88312 0 6.7068V14.8932C0.000952785 15.7169 0.328581 16.5066 0.911013 17.089C1.49344 17.6714 2.28312 17.999 3.1068 18H11.2932C12.8664 18 14.157 16.8192 14.3586 15.3H14.8932C15.7169 15.299 16.5066 14.9714 17.089 14.389C17.6714 13.8066 17.999 13.0169 18 12.1932V3.1068C17.999 2.28312 17.6714 1.49344 17.089 0.911013C16.5066 0.328581 15.7169 0.000952785 14.8932 0ZM16.2 12.1932C16.2 12.9132 15.6141 13.5 14.8932 13.5H14.4V6.7068C14.399 5.88312 14.0714 5.09344 13.489 4.51101C12.9066 3.92858 12.1169 3.60095 11.2932 3.6H5.4V3.1068C5.4 2.3868 5.9859 1.8 6.7068 1.8H14.8932C15.6132 1.8 16.2 2.3859 16.2 3.1068V12.1932Z" fill="#266AED"/>
</svg>
