<svg xmlns="http://www.w3.org/2000/svg" width="343" height="148" viewBox="0 0 343 148" fill="none">
  <path opacity="0.4" d="M104.226 -80.4599C-125.435 486.834 -11.4017 126.574 74.3225 -124.467C109.482 -143.804 204.485 -174.776 303.222 -143.971C426.643 -105.465 370.914 29.5578 271.144 199.086C171.374 368.614 210.792 271.598 250.755 180.083C290.717 88.5675 401.361 -143.971 214.326 180.083C27.2917 504.136 238.793 105.57 259.726 61.563C280.658 17.5558 386.409 -201.98 243.143 53.0616C100.234 307.468 165.067 180.719 229.88 54.0119L230.366 53.0616C282.344 -48.5551 267.61 -86.2947 253.745 -92.4624C220.67 -17.6167 139.839 155.779 81.1186 250.594C7.71831 369.114 78.9437 184.584 147.994 24.0574C217.045 -136.469 209.161 -192.478 137.936 -28.4513C66.7104 135.576 31.3695 184.084 67.5259 91.0684C103.682 -1.94693 145.548 -124.467 104.226 -80.4599Z" fill="#2012C9"/>
</svg>
